<svg width="26" height="26" viewBox="0 0 26 26" fill="none" xmlns="http://www.w3.org/2000/svg">
<g id="settings-04">
<path id="Icon" d="M3.888 8.624L16.464 8.624M16.464 8.624C16.464 10.3604 17.8716 11.768 19.608 11.768C21.3444 11.768 22.752 10.3604 22.752 8.624C22.752 6.88762 21.3444 5.48 19.608 5.48C17.8716 5.48 16.464 6.88762 16.464 8.624ZM10.176 17.008L22.752 17.008M10.176 17.008C10.176 18.7444 8.76838 20.152 7.032 20.152C5.29562 20.152 3.888 18.7444 3.888 17.008C3.888 15.2716 5.29562 13.864 7.032 13.864C8.76838 13.864 10.176 15.2716 10.176 17.008Z" stroke="black" stroke-width="2.096" stroke-linecap="round" stroke-linejoin="round"/>
</g>
</svg>
